<?xml version="1.0" encoding="UTF-8"?>
<svg id="Layer_1" data-name="Layer 1" xmlns="http://www.w3.org/2000/svg" viewBox="0 0 361.05 183.48">
  <rect width="361.05" height="183.48" rx="22.42" ry="22.42" fill="#262261"/>
  <g>
    <path d="M232.62,117c-9.64-2.43-12.43-12.07-11.75-20.84.06-.73.72-1.41,1.48-1.41l11.25-.04c.88,0,1.68-.67,1.68-1.59v-25.44c.01-.85.59-1.62,1.55-1.62h19.36c.84-.02,1.54.71,1.54,1.51l-.02,34.13c0,2.51-.53,4.75-1.43,6.98-2.79,6.86-9.35,9.16-16.34,9.14-2.48,0-4.8-.19-7.3-.82Z" fill="#fbf7ca"/>
    <path d="M111.27,117.28l-16.71.03c-1.19,0-1.82-.76-1.82-1.85v-47.59c.01-1.02.81-1.71,1.8-1.71h16.88c.86,0,1.62.67,1.62,1.52v47.95c0,.92-.69,1.65-1.77,1.65Z" fill="#fbf7ca"/>
    <path d="M87.63,66.14c1.1,0,2.02.97,1.78,2.09l-9.27,44.21c-.47,2.23-1.39,4.73-4.12,4.73h-23.17c-1.24.01-2.08-.66-2.36-2l-9.95-46.83c-.26-1.22.62-2.21,1.75-2.21h14.89c.84,0,1.64.71,1.83,1.51l5.57,24.17c.06.27.26.57.43.6s.56-.26.61-.47l5.28-23.54c.2-.9.63-2.24,1.79-2.24l14.95-.03Z" fill="#fbf7ca"/>
    <path d="M172.56,101.01c-2.65,9.27-10.17,13.94-19.25,15.52-2.77.48-5.43.81-8.29.81h-25.59c-.86,0-1.93-.57-1.93-1.49v-48.28c0-.77.71-1.34,1.35-1.4,2.18-.19,4.19-.1,6.4-.09l19.2.05c7.41.02,15.67,1.78,21.37,6.71,3.6,3.11,6.02,7.21,7.09,11.89,1.24,5.39,1.15,10.98-.36,16.28ZM150.24,89.43c-.3-3.28-4.03-4.45-6.7-4.43l-4.1.03-.02,11.75h4.46c1.35,0,2.72-.37,3.93-.91,2.6-1.15,2.66-3.93,2.43-6.45Z" fill="#fbf7ca"/>
    <path d="M211.37,97.78h-13.56c-.49,0-.91.42-.92.85l-.02,2.64c0,.28.4.75.76.75h17.71c.91.01,1.77.67,1.78,1.64l.03,11.78c0,.89-.65,1.78-1.65,1.78h-36.65c-.97,0-1.59-.76-1.59-1.66v-47.87c0-.99.7-1.48,1.61-1.64l38.23.02c1.1,0,1.56.86,1.55,1.72l-.02,12.02c0,.8-.52,1.63-1.47,1.63l-19.14.03c-.58,0-1.13.37-1.13.93v2.77c-.02.38.49.8.92.8l13.44.02c.77,0,1.4.71,1.4,1.42v9.12c0,.68-.53,1.26-1.27,1.26Z" fill="#fbf7ca"/>
    <path d="M311,83.24c-1.37-6.95-5.93-12.57-12.48-15.3-4.19-1.75-8.62-2.31-13.19-2.29-3.92.02-7.66.44-11.3,1.79-9.32,3.46-13.13,11.82-13.5,21.27-.23,5.92.14,10.86,2.31,16.39,2.41,6.17,7.5,9.9,13.78,11.6,6.33,1.72,15.39,1.52,21.59-.81,4.52-1.7,8.2-4.78,10.41-9.05,1.53-2.95,2.44-6.01,2.84-9.32.58-4.83.48-9.53-.46-14.28ZM294.32,93.36c-7.24,6.92-11.23,7.31-13.2,6.64-.68-.23-1.19-.76-1.45-1.4,0,0,0,0,0,0-.06-.14.03.15,0,0-1.19-4.13-1.36-10.44-.1-14.45h0s0-.01,0-.02c.21-.79.77-1.35,1.54-1.62,1.97-.68,5.95-.29,13.2,6.64,1.2,1.15,1.2,3.06,0,4.21Z" fill="#fbf7ca"/>
  </g>
</svg>